<svg width="80" height="46" viewBox="0 0 80 46" fill="none" xmlns="http://www.w3.org/2000/svg">
    <mask id="path-1-inside-1_219_13" fill="white">
        <path d="M42.5 0.5C52.3161 0.5 60.6623 6.78657 63.7363 15.5527C64.153 15.518 64.5744 15.5 65 15.5C73.2843 15.5 80 22.2157 80 30.5C80 38.7843 73.2843 45.5 65 45.5H15L14.6133 45.4951C6.50774 45.29 0 38.655 0 30.5C0 22.2157 6.71573 15.5 15 15.5C17.0922 15.5 19.0844 15.9284 20.8936 16.7021C23.6175 7.34101 32.2597 0.5 42.5 0.5Z"/>
    </mask>
    <path d="M42.5 0.5C52.3161 0.5 60.6623 6.78657 63.7363 15.5527C64.153 15.518 64.5744 15.5 65 15.5C73.2843 15.5 80 22.2157 80 30.5C80 38.7843 73.2843 45.5 65 45.5H15L14.6133 45.4951C6.50774 45.29 0 38.655 0 30.5C0 22.2157 6.71573 15.5 15 15.5C17.0922 15.5 19.0844 15.9284 20.8936 16.7021C23.6175 7.34101 32.2597 0.5 42.5 0.5Z" fill="url(#paint0_linear_219_13)"/>
    <path d="M63.7363 15.5527L63.642 15.5858L63.6676 15.6588L63.7446 15.6524L63.7363 15.5527ZM15 45.5L14.9987 45.6H15V45.5ZM14.6133 45.4951L14.6108 45.5951L14.612 45.5951L14.6133 45.4951ZM15 15.5V15.4V15.5ZM20.8936 16.7021L20.8542 16.7941L20.958 16.8385L20.9896 16.7301L20.8936 16.7021ZM42.5 0.5V0.6C52.2723 0.6 60.5816 6.85848 63.642 15.5858L63.7363 15.5527L63.8307 15.5196C60.7431 6.71467 52.3599 0.4 42.5 0.4V0.5ZM63.7363 15.5527L63.7446 15.6524C64.1585 15.6179 64.5772 15.6 65 15.6V15.5V15.4C64.5716 15.4 64.1474 15.4181 63.728 15.4531L63.7363 15.5527ZM65 15.5V15.6C73.229 15.6 79.9 22.271 79.9 30.5H80H80.1C80.1 22.1605 73.3395 15.4 65 15.4V15.5ZM80 30.5H79.9C79.9 38.729 73.229 45.4 65 45.4V45.5V45.6C73.3395 45.6 80.1 38.8395 80.1 30.5H80ZM65 45.5V45.4H15V45.5V45.6H65V45.5ZM15 45.5L15.0013 45.4L14.6145 45.3951L14.6133 45.4951L14.612 45.5951L14.9987 45.6L15 45.5ZM14.6133 45.4951L14.6158 45.3951C6.56435 45.1914 0.1 38.6006 0.1 30.5H0H-0.1C-0.1 38.7094 6.45112 45.3886 14.6108 45.5951L14.6133 45.4951ZM0 30.5H0.1C0.1 22.271 6.77096 15.6 15 15.6V15.5V15.4C6.6605 15.4 -0.1 22.1605 -0.1 30.5H0ZM15 15.5V15.6C17.0784 15.6 19.0572 16.0255 20.8542 16.7941L20.8936 16.7021L20.9329 16.6102C19.1115 15.8312 17.106 15.4 15 15.4V15.5ZM20.8936 16.7021L20.9896 16.7301C23.7014 7.41049 32.3054 0.6 42.5 0.6V0.5V0.4C32.2141 0.4 23.5336 7.27153 20.7975 16.6742L20.8936 16.7021Z" fill="black" fill-opacity="0.05" mask="url(#path-1-inside-1_219_13)"/>
    <defs>
        <linearGradient id="paint0_linear_219_13" x1="40" y1="0.5" x2="40" y2="45.5" gradientUnits="userSpaceOnUse">
            <stop stop-color="#D9C9FF"/>
            <stop offset="1" stop-color="#CAD4DF"/>
        </linearGradient>
    </defs>
</svg>